<svg xmlns="http://www.w3.org/2000/svg" width="24" height="24" viewBox="0 0 24 24"><g fill="none" fill-rule="evenodd"><rect width="24" height="24"></rect><path fill="#ffffff" fill-rule="nonzero" d="M5,2 L19,2 C21.209139,2 23,3.790861 23,6 L23,18 C23,20.209139 21.209139,22 19,22 L5,22 C2.790861,22 1,20.209139 1,18 L1,6 C1,3.790861 2.790861,2 5,2 Z M4.97387949,20 L18.9852783,20.0000197 C20.0898587,20.0000197 20.985298,19.1045804 20.985298,18 C20.985298,17.970929 20.9846641,17.9418615 20.9833969,17.9128182 C20.7924979,13.5376061 19.564699,11.35 17.3,11.35 C14.7,11.35 15,17 11.5,17 C9,17 9,14.65 6,14.65 C4.21295619,14.65 3.20800028,15.6960426 2.98513226,17.7881277 L2.98511953,17.7881263 C2.868112,18.8864881 3.66365681,19.8717396 4.76201861,19.9887472 C4.83239008,19.9962438 4.90310985,20 4.97387949,20 Z M7,10 C8.1045695,10 9,9.1045695 9,8 C9,6.8954305 8.1045695,6 7,6 C5.8954305,6 5,6.8954305 5,8 C5,9.1045695 5.8954305,10 7,10 Z"></path></g></svg>